<?xml version="1.0" encoding="UTF-8" standalone="no"?>
<svg width="500px" height="600px" viewBox="0 0 500 600" version="1.1" xmlns="http://www.w3.org/2000/svg" xmlns:xlink="http://www.w3.org/1999/xlink">
    <!-- Generator: Sketch 44.1 (41455) - http://www.bohemiancoding.com/sketch -->
    <title>特殊符号汇总（背景色透明）symbol</title>
    <desc>Created with Sketch.</desc>
    <defs>
        <path d="M0.58,0.544921875 C0.34375,0.76640625 0.34,1.1484375 0.58875,1.38164063 L4.11625,4.6875 L0.58875,7.99453125 C0.33875,8.22773438 0.33625,8.6015625 0.58,8.83007813 C0.8175,9.05273438 1.225,9.05625 1.47375,8.82304688 L5,5.51601563 L8.5275,8.82304688 C8.77625,9.05625 9.175,9.05976563 9.41875,8.83007813 C9.65625,8.60859375 9.66,8.2265625 9.41125,7.99453125 L5.88375,4.6875 L9.41125,1.38164063 C9.66,1.14726562 9.66375,0.7734375 9.41875,0.544921875 C9.18125,0.322265625 8.77625,0.31875 8.5275,0.551953125 L5,3.85898438 L1.47375,0.551953125 C1.3475,0.43359375 1.1825,0.375 1.01875,0.375 C0.85875,0.375 0.7,0.432421875 0.58,0.544921875 Z" id="path-1"></path>
        <path d="M0.58,0.544921875 C0.34375,0.76640625 0.34,1.1484375 0.58875,1.38164063 L4.11625,4.6875 L0.58875,7.99453125 C0.33875,8.22773438 0.33625,8.6015625 0.58,8.83007813 C0.8175,9.05273438 1.225,9.05625 1.47375,8.82304688 L5,5.51601563 L8.5275,8.82304688 C8.77625,9.05625 9.175,9.05976563 9.41875,8.83007813 C9.65625,8.60859375 9.66,8.2265625 9.41125,7.99453125 L5.88375,4.6875 L9.41125,1.38164063 C9.66,1.14726562 9.66375,0.7734375 9.41875,0.544921875 C9.18125,0.322265625 8.77625,0.31875 8.5275,0.551953125 L5,3.85898438 L1.47375,0.551953125 C1.3475,0.43359375 1.1825,0.375 1.01875,0.375 C0.85875,0.375 0.7,0.432421875 0.58,0.544921875 Z" id="path-3"></path>
    </defs>
    <g id="Page-1" stroke="none" stroke-width="1" fill="none" fill-rule="evenodd">
        <g id="特殊符号汇总（背景色透明）symbol">
            <g id="左侧导航2" transform="translate(72.000000, 343.000000)" fill-rule="nonzero" fill="#9B9B9B">
                <polygon id="Combined-Shape" transform="translate(6.000000, 3.000000) scale(-1, 1) rotate(-180.000000) translate(-6.000000, -3.000000) " points="6.557547 5.5039173 11.628302 0.9921654 12 0.6614436 11.256604 0 10.884906 0.3307218 6 4.6771127 1.115094 0.3307218 0.743396 0 0 0.6614436 0.371698 0.9921654 5.628302 5.6692782 6 6"></polygon>
            </g>
            <g id="左侧导航1" transform="translate(30.000000, 343.000000)" fill-rule="nonzero" fill="#9B9B9B">
                <polygon id="Combined-Shape-Copy" points="6.557547 5.5039173 11.628302 0.9921654 12 0.6614436 11.256604 0 10.884906 0.3307218 6 4.6771127 1.115094 0.3307218 0.743396 0 0 0.6614436 0.371698 0.9921654 5.628302 5.6692782 6 6"></polygon>
            </g>
            <g id="顶部箭头顶部向上" transform="translate(65.000000, 305.000000)" fill="#999999" fill-rule="nonzero">
                <path d="M9.21751442,7.59619408 C9.41277657,7.79145622 9.72935906,7.79145622 9.9246212,7.59619408 C10.1198833,7.40093193 10.1198833,7.08434944 9.9246212,6.8890873 L6.03553391,3 L2.14644661,6.8890873 C1.95118446,7.08434944 1.95118446,7.40093193 2.14644661,7.59619408 C2.34170876,7.79145622 2.65829124,7.79145622 2.85355339,7.59619408 L6.03553391,4.41421356 L9.21751442,7.59619408 Z"></path>
            </g>
            <g id="顶部箭头顶部向下" transform="translate(30.000000, 305.000000)" fill="#999999" fill-rule="nonzero">
                <path d="M2.85355339,4.14644661 C2.65829124,3.95118446 2.34170876,3.95118446 2.14644661,4.14644661 C1.95118446,4.34170876 1.95118446,4.65829124 2.14644661,4.85355339 L6.03553391,8.74264069 L9.9246212,4.85355339 C10.1198833,4.65829124 10.1198833,4.34170876 9.9246212,4.14644661 C9.72935906,3.95118446 9.41277657,3.95118446 9.21751442,4.14644661 L6.03553391,7.32842712 L2.85355339,4.14644661 Z"></path>
            </g>
            <g id="Fill-2" transform="translate(76.000000, 243.000000)" fill-rule="nonzero" fill="#999999">
                <path d="M13.68301,15.9999 L13.68301,15.9999 L0.29135,30.19948 C-0.09075,30.60452 -0.09796,31.26922 0.27532,31.68376 C0.64831,32.09849 1.26066,32.10635 1.64251,31.70115 L15.70965,16.78552 C15.91182,16.57105 16.00807,16.28418 15.99947,15.9999 C16.00807,15.71589 15.91182,15.42894 15.70965,15.21447 L1.64251,0.29888 C1.26066,-0.10636 0.64831,-0.0985 0.27532,0.31627 C-0.09796,0.73077 -0.09075,1.39523 0.29135,1.80047 L13.68301,15.9999 L13.68301,15.9999 Z" id="Fill-1"></path>
            </g>
            <g id="Fill-1" transform="translate(30.000000, 243.000000)" fill-rule="nonzero" fill="#999999">
                <path d="M13.683006,15.9999 L13.683006,15.9999 L0.291348001,30.19948 C-0.0907539988,30.60452 -0.0979579988,31.26922 0.275324001,31.68376 C0.648312001,32.09849 1.260661,32.10635 1.642506,31.70115 L15.709651,16.78552 C15.911819,16.57105 16.008071,16.28418 15.999471,15.9999 C16.008071,15.71589 15.911819,15.42894 15.709651,15.21447 L1.642506,0.29888 C1.260661,-0.10636 0.648312001,-0.0985 0.275324001,0.31627 C-0.0979579988,0.73077 -0.0907539988,1.39523 0.291348001,1.80047 L13.683006,15.9999 L13.683006,15.9999 Z" transform="translate(8.000000, 16.000000) scale(-1, 1) translate(-8.000000, -16.000000) "></path>
            </g>
            <g id="收起-01" transform="translate(72.000000, 207.000000)" fill-rule="nonzero" fill="#F14400">
                <polygon id="Combined-Shape" transform="translate(6.000000, 3.000000) scale(-1, 1) rotate(-180.000000) translate(-6.000000, -3.000000) " points="6.557547 5.5039173 11.628302 0.99216544 12 0.66144363 11.2566039 0 10.8849059 0.33072181 6 4.6771127 1.1150941 0.33072181 0.7433961 0 0 0.66144363 0.371698 0.99216544 5.628302 5.6692782 6 6"></polygon>
            </g>
            <g id="更多" transform="translate(30.000000, 207.000000)" fill-rule="nonzero" fill="#999999">
                <polygon id="Combined-Shape" points="6.557547 5.5039173 11.628302 0.99216544 12 0.66144363 11.2566039 0 10.8849059 0.33072181 6 4.6771127 1.1150941 0.33072181 0.7433961 0 0 0.66144363 0.371698 0.99216544 5.628302 5.6692782 6 6"></polygon>
            </g>
            <g id="翻页-1" transform="translate(30.000000, 157.000000)">
                <g id="Rectangle-20">
                    <g>
                        <g id="path-1-link" fill="#FFFFFF">
                            <rect id="path-1" x="0" y="0" width="20" height="20"></rect>
                        </g>
                        <rect id="Rectangle-path" stroke="#E5E5E5" x="0.5" y="0.5" width="19" height="19"></rect>
                    </g>
                </g>
                <polyline id="Path-2" stroke="#CCCCCC" points="12 6 8 10 12 14"></polyline>
            </g>
            <g id="翻页-2" transform="translate(76.000000, 157.000000)">
                <g id="Rectangle-20">
                    <g>
                        <g id="path-1-link" fill="#FFFFFF">
                            <rect id="path-1" x="0" y="0" width="20" height="20"></rect>
                        </g>
                        <rect id="Rectangle-path" stroke="#E5E5E5" x="0.5" y="0.5" width="19" height="19"></rect>
                    </g>
                </g>
                <polyline id="Path-2" stroke="#FF2600" transform="translate(10.000000, 10.000000) scale(-1, 1) translate(-10.000000, -10.000000) " points="12 6 8 10 12 14"></polyline>
            </g>
            <g id="翻页-3" transform="translate(126.000000, 157.000000)">
                <g id="翻页-1">
                    <g id="Rectangle-20">
                        <g id="path-1-link" fill="#FFFFFF">
                            <rect id="path-1" x="0" y="0" width="20" height="20"></rect>
                        </g>
                        <rect id="Rectangle-path" stroke="#E5E5E5" x="0.5" y="0.5" width="19" height="19"></rect>
                    </g>
                </g>
                <polyline id="Path-2" stroke="#F14400" points="12 6 8 10 12 14"></polyline>
            </g>
            <g id="翻页-4" transform="translate(176.000000, 157.000000)">
                <g id="翻页-2">
                    <g id="Rectangle-20">
                        <g id="path-1-link" fill="#FFFFFF">
                            <rect id="path-1" x="0" y="0" width="20" height="20"></rect>
                        </g>
                        <rect id="Rectangle-path" stroke="#E5E5E5" x="0.5" y="0.5" width="19" height="19"></rect>
                    </g>
                </g>
                <polyline id="Path-2" stroke="#CCCCCC" transform="translate(10.000000, 10.000000) scale(-1, 1) translate(-10.000000, -10.000000) " points="12 6 8 10 12 14"></polyline>
            </g>
            <g id="上传" transform="translate(30.000000, 111.000000)">
                <g id="Rectangle-4">
                    <g id="path-1-link" fill="#F9FAFC">
                        <rect id="path-1" x="0" y="0" width="16" height="16"></rect>
                    </g>
                    <rect id="Rectangle-path" stroke="#C0CCDA" x="0.5" y="0.5" width="15" height="15"></rect>
                </g>
                <polygon id="Combined-Shape" fill="#D83D00" fill-rule="nonzero" points="9.33333333 8 14 3.33333333 12.6666667 2 8 6.66666667 3.33333333 2 2 3.33333333 6.66666667 8 2 12.6666667 3.33333333 14 8 9.33333333 12.6666667 14 14 12.6666667"></polygon>
            </g>
            <g id="弹窗-关闭" transform="translate(114.000000, 69.000000)" fill-rule="nonzero" fill="#999999">
                <polygon id="Combined-Shape" points="5.95863094 4.89797077 9.6709415 1.18566017 8.6102814 0.125 4.89797077 3.8373106 1.18566017 0.125 0.125 1.18566017 3.8373106 4.89797077 0.125 8.6102814 1.18566017 9.6709415 4.89797077 5.95863094 8.6102814 9.6709415 9.6709415 8.6102814"></polygon>
            </g>
            <g id="close-icon02" transform="translate(72.000000, 69.000000)" fill-rule="nonzero" fill="#FFFFFF">
                <path d="M5.545455,4.17658 L1.707107,0.33823 C1.316582,-0.05229 0.683418,-0.05229 0.292893,0.33823 C-0.097631,0.72876 -0.097631,1.36192 0.292893,1.75245 L4.131241,5.5908 L0.292893,9.42914 C-0.097631,9.81967 -0.097631,10.45283 0.292893,10.84336 C0.683418,11.23388 1.316582,11.23388 1.707107,10.84336 L5.545455,7.00501 L9.429143,10.8887 C9.819668,11.27922 10.452833,11.27922 10.843357,10.8887 C11.233881,10.49817 11.233881,9.86501 10.843357,9.47448 L6.959668,5.5908 L10.843357,1.70711 C11.233881,1.31658 11.233881,0.68342 10.843357,0.29289 C10.452833,-0.09763 9.819668,-0.09763 9.429143,0.29289 L5.545455,4.17658 Z" id="close-icon"></path>
            </g>
            <g id="close-icon01" transform="translate(30.000000, 69.000000)" fill-rule="nonzero" fill="#9B9B9B">
                <path d="M5.545455,4.17658 L1.707107,0.33823 C1.316582,-0.05229 0.683418,-0.05229 0.292893,0.33823 C-0.097631,0.72876 -0.097631,1.36192 0.292893,1.75245 L4.131241,5.5908 L0.292893,9.42914 C-0.097631,9.81967 -0.097631,10.45283 0.292893,10.84336 C0.683418,11.23388 1.316582,11.23388 1.707107,10.84336 L5.545455,7.00501 L9.429143,10.8887 C9.819668,11.27922 10.452833,11.27922 10.843357,10.8887 C11.233881,10.49817 11.233881,9.86501 10.843357,9.47448 L6.959668,5.5908 L10.843357,1.70711 C11.233881,1.31658 11.233881,0.68342 10.843357,0.29289 C10.452833,-0.09763 9.819668,-0.09763 9.429143,0.29289 L5.545455,4.17658 Z" id="close-icon"></path>
            </g>
            <g id="Page-2" transform="translate(70.000000, 30.000000)">
                <mask id="mask-2" fill="white">
                    <use xlink:href="#path-1"></use>
                </mask>
                <g id="path-1"></g>
                <polygon id="Fill-1" fill="#00A1FF" fill-rule="nonzero" mask="url(#mask-2)" points="5 -6.88539063 22.6775 9.68726563 5 26.2599219 -12.6775 9.68726563"></polygon>
            </g>
            <g id="Page-1" transform="translate(30.000000, 30.000000)">
                <mask id="mask-4" fill="white">
                    <use xlink:href="#path-3"></use>
                </mask>
                <g id="path-1"></g>
                <polygon id="Fill-1" fill="#F14400" fill-rule="nonzero" mask="url(#mask-4)" points="5 -6.88539063 22.6775 9.68726563 5 26.2599219 -12.6775 9.68726563"></polygon>
            </g>
            <g id="弹出框三角" transform="translate(30.000000, 379.000000)" fill-rule="nonzero">
                <path d="M8,0 L16,8 L0,8 L8,0 Z M8,1.5 L1.5,8 L14.5,8 L8,1.5 Z" id="Combined-Shape" fill="#CCCCCC"></path>
                <polygon id="Rectangle-2" fill="#FFFFFF" points="1.5 8 14.5 8 15.5 9 0.5 9"></polygon>
            </g>
            <g id="弹出框三角-copy" transform="translate(114.000000, 383.500000) scale(1, -1) translate(-114.000000, -383.500000) translate(106.000000, 379.000000)" fill-rule="nonzero">
                <path d="M8,0 L16,8 L0,8 L8,0 Z M8,1.5 L1.5,8 L14.5,8 L8,1.5 Z" id="Combined-Shape" fill="#CCCCCC"></path>
                <polygon id="Rectangle-2" fill="#FFFFFF" points="1.5 8 14.5 8 15.5 9 0.5 9"></polygon>
            </g>
            <g id="弹出框三角-copy-3" transform="translate(30.000000, 429.000000)">
                <polygon id="Combined-Shape" fill="#CCCCCC" fill-rule="nonzero" points="27 0 35 8 19 8"></polygon>
                <polygon id="Combined-Shape-path" fill="#FFFFFF" points="27 1.5 20.5 8 33.5 8"></polygon>
                <polygon id="Rectangle-2" fill="#FFFFFF" fill-rule="nonzero" points="20.5 8 33.5 8 34.5 9 19.5 9"></polygon>
                <polygon id="Rectangle-2-Copy" fill="#CCCCCC" fill-rule="nonzero" transform="translate(10.500000, 8.500000) scale(1, -1) translate(-10.500000, -8.500000) " points="0.5 8 19.5 8 20.5 9 0.5 9"></polygon>
                <polygon id="Rectangle-2-Copy-2" fill="#CCCCCC" fill-rule="nonzero" transform="translate(43.500000, 8.500000) scale(1, -1) translate(-43.500000, -8.500000) " points="34.5 8 53.5 8 53.5 9 33.5 9"></polygon>
            </g>
            <g id="弹出框三角-copy-4" transform="translate(161.000000, 433.500000) scale(1, -1) translate(-161.000000, -433.500000) translate(134.000000, 429.000000)">
                <polygon id="Combined-Shape" fill="#CCCCCC" fill-rule="nonzero" points="27 0 35 8 19 8"></polygon>
                <polygon id="Combined-Shape-path" fill="#FFFFFF" points="27 1.5 20.5 8 33.5 8"></polygon>
                <polygon id="Rectangle-2" fill="#FFFFFF" fill-rule="nonzero" points="20.5 8 33.5 8 34.5 9 19.5 9"></polygon>
                <polygon id="Rectangle-2-Copy" fill="#CCCCCC" fill-rule="nonzero" transform="translate(10.500000, 8.500000) scale(1, -1) translate(-10.500000, -8.500000) " points="0.5 8 19.5 8 20.5 9 0.5 9"></polygon>
                <polygon id="Rectangle-2-Copy-2" fill="#CCCCCC" fill-rule="nonzero" transform="translate(43.500000, 8.500000) scale(1, -1) translate(-43.500000, -8.500000) " points="34.5 8 53.5 8 53.5 9 33.5 9"></polygon>
            </g>
        </g>
    </g>
</svg>